<svg xmlns="http://www.w3.org/2000/svg" width="30" height="30" viewBox="0 0 30 30">
  <rect fill="#efefef" stroke-width="0px" width="30" height="30"/>
  <path fill="#000000" stroke-width="0px" d="M22.5,11.4c0-2.2-1.8-3.9-3.9-3.9-1.6,0-3,.9-3.6,2.4-.8-2-3.1-2.9-5.1-2.1-2,.8-2.9,3.1-2.1,5.1.4.9,1.1,1.7,2.1,2.1-2,.8-2.9,3.1-2.1,5.1s3.1,2.9,5.1,2.1c.9-.4,1.7-1.1,2.1-2.1.8,2,3.1,2.9,5.1,2.1,2-.8,2.9-3.1,2.1-5.1-.4-.9-1.1-1.7-2.1-2.1,1.4-.6,2.4-2,2.4-3.6ZM18.6,8.1c1.8,0,3.3,1.5,3.3,3.3,0,.9-.3,1.7-1,2.3-.6.6-1.5,1-2.3,1h-3.3v-3.3c0-1.8,1.5-3.3,3.3-3.3ZM18.6,21.9c-1.8,0-3.3-1.5-3.3-3.3v-3.3h3.3c1.8,0,3.2,1.6,3.2,3.4,0,1.7-1.4,3.1-3.2,3.2ZM8.1,11.4c0-1.8,1.6-3.2,3.4-3.2,1.7,0,3.1,1.4,3.2,3.2v3.3h-3.3c-1.8,0-3.3-1.5-3.3-3.3ZM11.4,21.9c-1.8,0-3.2-1.6-3.2-3.4,0-1.7,1.4-3.1,3.2-3.2h3.3v3.3c0,1.8-1.5,3.3-3.3,3.3Z"/>
</svg>